<svg width="285" height="356" viewBox="0 0 285 356" fill="none" xmlns="http://www.w3.org/2000/svg">
<path d="M33 38L127.5 0V18.5L50 50.5V119.836C50 133.185 51.8229 146.636 57.4911 158.722C70.1163 185.643 86.8304 199.91 119.5 221V206.5L127.5 196.5V245C88.284 225.606 66.4365 209.729 46.0535 177.588C36.7189 162.869 33 145.411 33 127.981V38Z" fill="url(#paint0_linear_35_43)"/>
<path d="M241.5 38L147 0V18.5L224.5 50.5V119.836C224.5 133.185 222.677 146.636 217.009 158.722C204.384 185.643 187.67 199.91 155 221V206.5L147 196.5V245C186.216 225.606 208.064 209.729 228.447 177.588C237.781 162.869 241.5 145.411 241.5 127.981V38Z" fill="url(#paint1_linear_35_43)"/>
<path fill-rule="evenodd" clip-rule="evenodd" d="M170.444 100.407C175.722 100.407 180 105.917 180 112.714V155.786C180 162.583 175.722 168.093 170.444 168.093H103.556C98.2782 168.093 94 162.583 94 155.786V112.714C94 105.917 98.2782 100.407 103.556 100.407H170.444ZM137 111.426C129.084 111.426 122.667 117.769 122.667 125.593C122.667 130.836 125.549 135.414 129.833 137.863V157.074H144.167V137.863C148.451 135.414 151.333 130.836 151.333 125.593C151.333 117.769 144.916 111.426 137 111.426Z" fill="url(#paint2_linear_35_43)"/>
<path d="M164.074 104.389V85.6073C164.074 70.9125 151.953 59 137 59C122.047 59 109.926 70.9125 109.926 85.6073V104.389M170.444 100.407C175.722 100.407 180 105.917 180 112.714V155.786C180 162.583 175.722 168.093 170.444 168.093H103.556C98.2782 168.093 94 162.583 94 155.786V112.714C94 105.917 98.2782 100.407 103.556 100.407H170.444ZM137 111.426C129.084 111.426 122.667 117.769 122.667 125.593C122.667 130.836 125.549 135.414 129.833 137.863V157.074H144.167V137.863C148.451 135.414 151.333 130.836 151.333 125.593C151.333 117.769 144.916 111.426 137 111.426Z" stroke="url(#paint3_linear_35_43)" stroke-width="8.75926" stroke-linejoin="round"/>
<path d="M21.4465 338L0.813488 286.233H12.5721L23.3693 314.261C23.9609 315.789 24.454 317.145 24.8484 318.328C25.2921 319.462 25.6619 320.547 25.9577 321.582C26.3028 322.568 26.6233 323.554 26.9191 324.54C27.2149 325.477 27.5107 326.513 27.8065 327.647L25.6619 327.72C26.0563 326.192 26.4507 324.787 26.8451 323.505C27.2395 322.174 27.6833 320.793 28.1763 319.364C28.6693 317.934 29.2856 316.233 30.0251 314.261L40.2307 286.233H51.9154L31.1344 338H21.4465ZM58.8589 338V298.879H69.3603V338H58.8589ZM64.0356 290.818C62.0142 290.818 60.4366 290.325 59.3026 289.339C58.1687 288.353 57.6017 286.947 57.6017 285.123C57.6017 283.447 58.1687 282.091 59.3026 281.056C60.4859 279.971 62.0635 279.429 64.0356 279.429C66.057 279.429 67.6347 279.947 68.7687 280.982C69.9026 281.968 70.4696 283.348 70.4696 285.123C70.4696 286.849 69.878 288.229 68.6947 289.265C67.5607 290.3 66.0077 290.818 64.0356 290.818ZM98.3992 355.009C95.2931 355.009 92.2364 354.541 89.2289 353.604C86.2215 352.717 83.781 351.558 81.9075 350.128L85.6052 342.585C86.5913 343.275 87.7252 343.892 89.0071 344.434C90.2889 344.976 91.6201 345.395 93.0006 345.691C94.4303 345.987 95.8847 346.135 97.3638 346.135C99.9275 346.135 102.023 345.74 103.65 344.952C105.326 344.163 106.583 342.98 107.421 341.402C108.26 339.873 108.679 337.901 108.679 335.486V328.682L110.454 329.052C110.158 330.679 109.344 332.182 108.013 333.563C106.682 334.894 105.006 335.979 102.984 336.817C100.963 337.606 98.8922 338 96.7722 338C93.1238 338 89.8945 337.162 87.0843 335.486C84.274 333.809 82.0554 331.492 80.4285 328.534C78.8015 325.576 77.988 322.174 77.988 318.328C77.988 314.384 78.7768 310.908 80.3545 307.901C81.9815 304.844 84.1754 302.453 86.9364 300.727C89.7466 298.953 92.9266 298.065 96.4764 298.065C97.9554 298.065 99.3606 298.238 100.692 298.583C102.072 298.928 103.329 299.421 104.463 300.062C105.647 300.653 106.682 301.344 107.569 302.133C108.506 302.872 109.27 303.686 109.862 304.573C110.454 305.46 110.823 306.348 110.971 307.235L108.827 307.827L109.122 298.879H119.18V335.042C119.18 338.247 118.712 341.081 117.775 343.547C116.838 346.012 115.458 348.082 113.634 349.759C111.859 351.484 109.665 352.791 107.052 353.678C104.488 354.566 101.604 355.009 98.3992 355.009ZM98.695 329.569C100.766 329.569 102.565 329.101 104.094 328.164C105.671 327.227 106.879 325.921 107.717 324.245C108.555 322.568 108.975 320.596 108.975 318.328C108.975 316.11 108.555 314.162 107.717 312.486C106.879 310.76 105.671 309.429 104.094 308.493C102.565 307.556 100.766 307.087 98.695 307.087C96.6736 307.087 94.874 307.58 93.2964 308.567C91.768 309.503 90.5847 310.81 89.7466 312.486C88.9085 314.162 88.4894 316.11 88.4894 318.328C88.4894 320.547 88.9085 322.519 89.7466 324.245C90.5847 325.921 91.768 327.227 93.2964 328.164C94.874 329.101 96.6736 329.569 98.695 329.569ZM130.501 338V298.879H141.003V338H130.501ZM135.678 290.818C133.657 290.818 132.079 290.325 130.945 289.339C129.811 288.353 129.244 286.947 129.244 285.123C129.244 283.447 129.811 282.091 130.945 281.056C132.128 279.971 133.706 279.429 135.678 279.429C137.699 279.429 139.277 279.947 140.411 280.982C141.545 281.968 142.112 283.348 142.112 285.123C142.112 286.849 141.52 288.229 140.337 289.265C139.203 290.3 137.65 290.818 135.678 290.818ZM170.781 338.74C166.541 338.74 162.843 337.877 159.688 336.151C156.533 334.426 154.068 332.059 152.293 329.052C150.518 326.044 149.63 322.593 149.63 318.698C149.63 315.691 150.123 312.93 151.11 310.415C152.096 307.901 153.476 305.732 155.251 303.907C157.026 302.034 159.121 300.604 161.537 299.618C164.002 298.583 166.664 298.065 169.524 298.065C172.186 298.065 174.651 298.558 176.919 299.544C179.187 300.481 181.135 301.837 182.762 303.612C184.438 305.337 185.72 307.383 186.607 309.75C187.495 312.116 187.889 314.705 187.79 317.515L187.716 320.769H156.286L154.585 314.335H179.064L177.881 315.666V314.039C177.782 312.708 177.338 311.5 176.55 310.415C175.81 309.331 174.849 308.493 173.665 307.901C172.482 307.309 171.151 307.013 169.672 307.013C167.503 307.013 165.654 307.433 164.125 308.271C162.646 309.109 161.512 310.341 160.723 311.968C159.935 313.595 159.54 315.567 159.54 317.885C159.54 320.251 160.033 322.297 161.019 324.023C162.055 325.748 163.484 327.104 165.309 328.09C167.182 329.027 169.376 329.495 171.89 329.495C173.616 329.495 175.194 329.224 176.623 328.682C178.053 328.14 179.582 327.203 181.209 325.872L186.237 332.897C184.808 334.179 183.23 335.264 181.504 336.151C179.779 336.989 178.004 337.63 176.18 338.074C174.356 338.518 172.556 338.74 170.781 338.74ZM199.47 338.813C197.548 338.813 196.069 338.271 195.033 337.187C193.998 336.102 193.48 334.549 193.48 332.527C193.48 330.703 194.023 329.224 195.107 328.09C196.241 326.907 197.696 326.315 199.47 326.315C201.344 326.315 202.798 326.858 203.834 327.942C204.869 329.027 205.387 330.555 205.387 332.527C205.387 334.401 204.844 335.929 203.76 337.113C202.675 338.247 201.245 338.813 199.47 338.813Z" fill="black"/>
<path d="M210.592 338L230.855 286.233H240.765L260.954 338H249.565L239.138 310.12C238.842 309.331 238.472 308.32 238.028 307.087C237.634 305.855 237.215 304.548 236.771 303.168C236.327 301.787 235.908 300.481 235.514 299.248C235.12 297.967 234.824 296.907 234.627 296.068L236.623 295.994C236.327 297.128 235.982 298.312 235.588 299.544C235.243 300.727 234.873 301.96 234.479 303.242C234.084 304.474 233.665 305.682 233.221 306.866C232.778 308.049 232.359 309.207 231.964 310.341L221.537 338H210.592ZM219.984 327.129L223.607 318.18H247.347L251.044 327.129H219.984ZM267.631 338V298.879H278.133V338H267.631ZM272.808 290.818C270.786 290.818 269.209 290.325 268.075 289.339C266.941 288.353 266.374 286.947 266.374 285.123C266.374 283.447 266.941 282.091 268.075 281.056C269.258 279.971 270.836 279.429 272.808 279.429C274.829 279.429 276.407 279.947 277.541 280.982C278.675 281.968 279.242 283.348 279.242 285.123C279.242 286.849 278.65 288.229 277.467 289.265C276.333 290.3 274.78 290.818 272.808 290.818Z" fill="url(#paint4_linear_35_43)"/>
<defs>
<linearGradient id="paint0_linear_35_43" x1="33" y1="122" x2="242" y2="122" gradientUnits="userSpaceOnUse">
<stop stop-color="#87DBFC"/>
<stop offset="1" stop-color="#7391FB"/>
</linearGradient>
<linearGradient id="paint1_linear_35_43" x1="33" y1="122" x2="242" y2="122" gradientUnits="userSpaceOnUse">
<stop stop-color="#87DBFC"/>
<stop offset="1" stop-color="#7391FB"/>
</linearGradient>
<linearGradient id="paint2_linear_35_43" x1="94" y1="113.324" x2="180.206" y2="113.324" gradientUnits="userSpaceOnUse">
<stop stop-color="#87DBFC"/>
<stop offset="1" stop-color="#7391FB"/>
</linearGradient>
<linearGradient id="paint3_linear_35_43" x1="94" y1="113.324" x2="180.206" y2="113.324" gradientUnits="userSpaceOnUse">
<stop stop-color="#87DBFC"/>
<stop offset="1" stop-color="#7391FB"/>
</linearGradient>
<linearGradient id="paint4_linear_35_43" x1="210" y1="309.812" x2="285.18" y2="309.812" gradientUnits="userSpaceOnUse">
<stop stop-color="#87DBFC"/>
<stop offset="1" stop-color="#7391FB"/>
</linearGradient>
</defs>
</svg>
